<svg xmlns="http://www.w3.org/2000/svg" viewBox="0 0 64 64"><defs><radialGradient id="r" cx="30%" cy="107%" r="130%"><stop offset="0" stop-color="#FEDA75"/><stop offset=".25" stop-color="#FA7E1E"/><stop offset=".5" stop-color="#D62976"/><stop offset=".75" stop-color="#962FBF"/><stop offset="1" stop-color="#4F5BD5"/></radialGradient></defs><circle cx="32" cy="32" r="30" fill="url(#r)"/><path fill="#fff" d="M40.3 18H23.7A5.7 5.7 0 0 0 18 23.7v16.6a5.7 5.7 0 0 0 5.7 5.7h16.6a5.7 5.7 0 0 0 5.7-5.7V23.7a5.7 5.7 0 0 0-5.7-5.7zM32 39.2A7.2 7.2 0 1 1 32 24.8a7.2 7.2 0 0 1 0 14.4zm8-13a1.7 1.7 0 1 1 0-3.4 1.7 1.7 0 0 1 0 3.4zM32 27.4a4.6 4.6 0 1 0 0 9.2 4.6 4.6 0 0 0 0-9.2z"/></svg>
