<svg xmlns="http://www.w3.org/2000/svg" viewBox="0 0 64 64"><circle cx="32" cy="32" r="30" fill="#010101"/><path fill="#25F4EE" d="M39.6 24.7a13 13 0 0 0 7.5 2.4v-5.5a7.5 7.5 0 0 1-7.5-7.5h-5.5v24.3a5.1 5.1 0 1 1-4.1-5v-5.6a10.7 10.7 0 1 0 9.6 10.6V24.7z"/><path fill="#FE2C55" d="M42 22.4a13 13 0 0 0 7.5 2.4v-5.5A7.5 7.5 0 0 1 42 11.8h-5.5v24.3a5.1 5.1 0 1 1-4.1-5v-5.6A10.7 10.7 0 1 0 42 36.1V22.4z"/><path fill="#fff" d="M39.6 24.7a13 13 0 0 0 7.5 2.4v-5.5a7.5 7.5 0 0 1-7.5-7.5h-5.5v24.3a5.1 5.1 0 1 1-4.1-5v-5.6a10.7 10.7 0 1 0 9.6 10.6V24.7z"/></svg>
