<svg xmlns="http://www.w3.org/2000/svg" viewBox="0 0 64 64"><circle cx="32" cy="32" r="30" fill="#25D366"/><path fill="#fff" d="M47.2 16.9A21.7 21.7 0 0 0 13 42.8L10.3 53l10.5-2.7a21.6 21.6 0 0 0 10.4 2.6h.1a21.7 21.7 0 0 0 15.9-36zm-15.9 32.3h-.1a18 18 0 0 1-9.2-2.5l-.7-.4-6.2 1.6 1.7-6-.4-.7a18 18 0 1 1 14.9 8zm9.9-13.4c-.5-.3-3.2-1.6-3.7-1.8-.5-.2-.9-.3-1.3.3s-1.5 1.8-1.8 2.2c-.3.4-.7.4-1.2.1-.5-.3-2.3-.8-4.3-2.7a16 16 0 0 1-3-3.7c-.3-.5 0-.8.2-1.1l.9-1c.3-.3.4-.6.6-1 .2-.4.1-.7 0-1l-1.7-4c-.5-1.2-.9-1-1.3-1h-1.1c-.4 0-1 .1-1.5.7-.5.5-2 2-2 4.8s2.1 5.6 2.4 6c.3.4 4.1 6.3 10 8.8 1.4.6 2.5 1 3.4 1.2 1.4.4 2.7.3 3.7.2 1.1-.2 3.2-1.3 3.7-2.6.5-1.3.5-2.4.3-2.6-.2-.3-.5-.4-1.1-.7z"/></svg>
